<svg width="21" height="25" viewBox="0 0 21 25" fill="none" xmlns="http://www.w3.org/2000/svg">
<path d="M20.9771 21.5314L19.1967 7.01959C19.1435 6.75763 18.9347 6.54888 18.6728 6.54888H14.8478V5.08151C14.8478 2.04241 13.1717 0 10.6565 0C8.14131 0 6.46521 2.04241 6.46521 5.08151V6.54888H2.32715C2.0652 6.54888 1.85645 6.75763 1.80324 7.01959L0.0227813 21.5314C-0.0815922 22.264 0.180363 23.0499 0.651055 23.5738C1.12176 24.1509 1.85647 24.464 2.58911 24.464H18.3599C19.0925 24.464 19.8272 24.1489 20.2979 23.5738C20.8198 23.0519 21.0817 22.2661 20.9774 21.5314H20.9771ZM7.51314 5.13246C7.51314 3.24554 8.35223 1.09877 10.6566 1.09877C12.961 1.09877 13.8001 3.24764 13.8001 5.13246V6.59983H7.51314V5.13246ZM19.5631 22.8941C19.2479 23.2092 18.8304 23.418 18.4109 23.418H2.58932C2.11861 23.418 1.69909 23.2092 1.43713 22.8941C1.17518 22.5789 1.01759 22.1082 1.0708 21.6375L2.79808 7.64755H18.2L19.9293 21.6889C19.9826 22.1084 19.825 22.5791 19.563 22.8943L19.5631 22.8941Z" fill="#28574E"/>
</svg>
