<svg width="24" height="21" viewBox="0 0 24 21" fill="none" xmlns="http://www.w3.org/2000/svg">
<path d="M20.42 3.58C19.9183 3.07658 19.3222 2.67714 18.6658 2.40459C18.0094 2.13204 17.3057 1.99174 16.595 1.99174C15.8842 1.99174 15.1805 2.13204 14.5241 2.40459C13.8678 2.67714 13.2716 3.07658 12.77 3.58L12 4.36L11.23 3.58C10.7283 3.07658 10.1322 2.67714 9.47578 2.40459C8.81941 2.13204 8.11568 1.99174 7.40496 1.99174C6.69425 1.99174 5.99052 2.13204 5.33414 2.40459C4.67776 2.67714 4.08164 3.07658 3.57996 3.58C1.45996 5.7 1.32996 9.28 3.99996 12L12 20L20 12C22.67 9.28 22.54 5.7 20.42 3.58Z" stroke="#212121" stroke-width="2" stroke-linecap="round" stroke-linejoin="round"/>
</svg>
