<svg width="112" height="117" viewBox="0 0 112 117" fill="none" xmlns="http://www.w3.org/2000/svg">
<path d="M55.4662 92.2058C28.1111 92.2465 5.73784 71.8883 5.6044 46.9698C5.51544 21.7663 27.355 1.12309 55.1548 1.00094C83.3994 0.838075 105.328 21.8478 105.283 46.6034C105.194 71.8069 83.0436 92.1651 55.4662 92.2058Z" fill="#28574E" stroke="#F5DADB" stroke-width="1.77919" stroke-miterlimit="10"/>
<path d="M85.3122 105.52C85.8904 104.706 86.6911 104.461 87.6251 104.421C89.5823 104.38 90.6498 105.194 90.6942 107.027C90.7387 108.452 90.6942 109.917 90.7387 111.343C90.7387 111.628 90.5163 112.075 90.9166 112.157C91.4949 112.279 92.1176 112.279 92.7403 112.116C92.8293 112.075 92.8293 111.79 92.8293 111.587C92.8293 109.592 92.7403 107.556 92.8737 105.561C92.9182 104.706 92.0731 105.113 91.8062 104.746C92.0731 104.299 92.5179 104.461 92.8293 104.461C93.6299 104.421 94.3861 104.502 95.1867 104.461C95.9429 104.421 96.5656 104.461 96.3432 105.52C97.1438 104.502 98.2113 104.299 99.4123 104.38C100.925 104.502 101.814 105.235 101.859 106.66C101.903 108.085 101.859 109.551 101.903 110.976C101.903 112.035 101.903 112.035 102.926 112.442C101.191 112.442 99.5012 112.442 97.4996 112.442C98.5672 112.198 98.4337 111.587 98.4337 111.017C98.4337 109.429 98.4337 107.882 98.4337 106.294C98.4337 105.887 98.4782 105.398 97.9 105.317C97.4107 105.235 97.0993 105.642 96.8769 106.009C96.5211 106.619 96.3876 107.23 96.3876 107.922C96.3876 108.981 96.3876 110.04 96.3876 111.139C96.3876 111.668 96.1652 112.36 97.1438 112.523C93.5854 112.523 90.0715 112.523 86.5132 112.523C87.3138 112.279 87.1803 111.709 87.1803 111.139C87.1359 109.51 87.1803 107.882 87.1359 106.253C87.1359 105.927 87.1803 105.479 86.6911 105.398C86.2463 105.317 85.9349 105.602 85.7125 105.927C85.3122 106.457 85.2232 107.027 85.2232 107.637C85.2232 108.859 85.2232 110.08 85.2232 111.302C85.2232 111.831 85.1343 112.32 85.8904 112.564C84.1557 112.564 82.4655 112.564 80.7308 112.564C81.9317 112.401 81.6204 111.587 81.6204 110.935C81.6204 109.225 81.6204 107.556 81.6204 105.846C81.6204 105.479 81.7538 104.991 81.0421 105.032C80.8642 105.032 80.6863 104.95 80.7308 104.746C80.7753 104.543 80.9532 104.543 81.1311 104.543C82.3321 104.543 83.533 104.543 84.734 104.543C85.4456 104.543 85.0898 105.113 85.3122 105.52Z" fill="#28574E"/>
<path d="M13.1215 112.523C11.1644 112.523 9.25178 112.523 7.29467 112.523C7.29467 112.238 7.47259 112.198 7.60603 112.238C8.18427 112.32 8.36219 112.075 8.31771 111.546C8.27323 110.243 8.27323 108.9 8.31771 107.597C8.31771 107.108 8.22875 106.904 7.60603 106.864C4.80381 106.823 4.80381 106.782 4.80381 109.347C4.80381 109.917 4.80381 110.488 4.80381 111.058C4.80381 112.116 4.80381 112.116 5.87132 112.483C3.91421 112.483 2.00159 112.483 0.0444795 112.483C1.55679 112.32 1.06751 111.261 1.06751 110.488C1.11199 107.678 1.06751 104.909 1.06751 102.1C1.06751 101.611 1.15647 101.123 0.311358 101.245C0.177919 101.245 0.0444797 101.204 0 101.041C0 100.838 0.133439 100.797 0.311358 100.797C2.04607 100.797 3.7363 100.797 5.47101 100.797C5.64892 100.797 5.82684 100.878 5.78236 101.041C5.73788 101.245 5.55997 101.245 5.38205 101.245C4.75933 101.163 4.71485 101.489 4.71485 101.896C4.71485 103.118 4.75933 104.339 4.71485 105.561C4.67037 106.172 4.93725 106.294 5.55996 106.294C8.22875 106.334 8.22875 106.334 8.22875 103.891C8.22875 103.281 8.22875 102.711 8.22875 102.1C8.22875 101.611 8.36219 101.123 7.51707 101.245C7.33915 101.286 7.16123 101.204 7.20571 101.001C7.25019 100.838 7.38363 100.797 7.51707 100.797C9.25178 100.797 10.942 100.797 12.6767 100.797C12.8546 100.797 13.0326 100.838 13.0326 101.041C13.0326 101.245 12.8102 101.286 12.6322 101.245C11.9206 101.163 11.965 101.571 11.965 101.978C11.965 104.991 12.0095 108.004 11.965 111.017C11.965 111.79 11.965 112.401 13.166 112.238C13.2105 112.36 13.166 112.442 13.1215 112.523Z" fill="#28574E"/>
<path d="M65.9634 106.375C66.4527 106.538 66.8085 106.619 67.0754 106.742C68.2764 107.189 68.9436 107.963 68.988 109.185C69.0325 110.447 68.5877 111.465 67.2533 111.994C66.764 112.198 66.3192 112.36 65.7855 112.442C63.1167 112.727 60.4034 112.523 57.6902 112.605C57.7347 112.442 57.7347 112.32 57.7347 112.32C58.8911 112.401 58.8911 111.75 58.8911 110.935C58.8467 108.004 58.8467 105.113 58.8911 102.181C58.8911 101.652 58.9801 101.123 58.0905 101.286C57.9126 101.326 57.6902 101.286 57.6902 101.082C57.6902 100.838 57.9571 100.838 58.135 100.838C60.6703 100.919 63.2057 100.634 65.741 101.082C67.3868 101.367 68.1874 102.1 68.3208 103.24C68.4988 104.706 67.965 105.479 66.4082 106.212C66.3637 106.212 66.2748 106.253 65.9634 106.375Z" fill="#28574E"/>
<path d="M30.2463 116.514C27.9778 116.514 25.7094 116.514 23.4409 116.514C24.6419 116.351 24.375 115.536 24.375 114.844C24.375 111.831 24.375 108.818 24.375 105.805C24.375 105.398 24.5084 104.95 23.7523 105.032C23.6633 105.032 23.4854 104.909 23.4854 104.828C23.4854 104.624 23.6633 104.584 23.8412 104.584C25.0422 104.584 26.2431 104.584 27.4441 104.584C28.1113 104.584 27.7555 105.113 27.9778 105.479C28.645 104.869 29.3122 104.502 30.2018 104.502C31.8476 104.502 32.8261 105.032 33.3599 106.416C33.8937 107.8 33.8937 109.266 33.4489 110.65C32.7817 112.808 30.5577 113.093 28.8674 112.727C28.6006 112.686 28.3782 112.564 27.9778 112.442C27.9778 113.623 27.9778 114.722 27.9778 115.862C27.9778 116.31 28.2892 116.269 28.6006 116.269C29.1343 116.269 29.7126 116.106 30.2463 116.514Z" fill="#28574E"/>
<path d="M38.6973 112.401C38.6973 113.541 38.6973 114.641 38.6973 115.74C38.6973 116.188 38.9642 116.229 39.32 116.229C39.8538 116.229 40.432 116.229 40.9658 116.229C40.9658 116.31 40.9658 116.432 40.9658 116.514C38.7418 116.514 36.4733 116.514 34.2493 116.514C35.4058 116.351 35.1834 115.536 35.1834 114.844C35.1834 111.831 35.1834 108.818 35.1834 105.805C35.1834 105.398 35.2724 104.95 34.5607 105.032C34.3828 105.032 34.2049 104.95 34.2493 104.747C34.2938 104.543 34.5162 104.543 34.6497 104.543C35.8061 104.543 36.9626 104.584 38.1636 104.543C38.8752 104.543 38.5194 105.113 38.7418 105.357C41.2771 103.525 43.679 104.421 44.3462 107.352C44.5686 108.452 44.5242 109.551 44.2128 110.61C43.7235 112.401 41.544 113.338 39.5424 112.686C39.2756 112.605 39.0087 112.483 38.6973 112.401Z" fill="#28574E"/>
<path d="M74.9929 104.543C76.3273 104.543 77.6172 104.502 78.9516 104.543C79.4853 104.543 79.3074 104.991 79.3074 105.276C79.3074 107.19 79.3519 109.103 79.3074 111.017C79.3074 111.709 79.174 112.401 80.4194 112.32C80.3749 112.401 80.3304 112.483 80.286 112.605C78.9071 112.605 77.5727 112.605 76.1938 112.605C75.7935 112.605 76.1049 112.116 75.749 111.913C75.3042 112.361 74.7705 112.727 74.0588 112.808C71.7459 113.134 70.4559 112.116 70.4115 109.958C70.4115 108.533 70.4115 107.149 70.4115 105.724C70.4115 105.317 70.4115 104.95 69.7887 105.032C69.6108 105.032 69.3884 104.95 69.3884 104.787C69.3884 104.502 69.6553 104.543 69.8332 104.543C70.9897 104.543 72.1462 104.543 73.3471 104.543C73.9254 104.543 73.9254 104.787 73.9254 105.194C73.9254 106.782 73.9254 108.33 73.9254 109.918C73.9254 110.203 73.8809 110.488 73.9698 110.773C74.1033 111.18 73.7919 111.831 74.5481 111.913C75.3487 111.994 75.6156 111.343 75.7045 110.813C75.838 109.999 75.7935 109.144 75.7935 108.289C75.7935 107.637 75.7935 106.986 75.7935 106.294C75.838 105.642 75.9269 104.991 74.815 104.909C74.9039 104.747 74.9484 104.665 74.9929 104.543Z" fill="#28574E"/>
<path d="M23.5298 110.04C23.4853 111.058 23.5298 111.994 22.5068 112.564C21.6172 113.053 19.6601 112.89 19.0373 112.238C18.637 111.831 18.5925 111.953 18.2367 112.279C17.5695 112.931 15.9682 113.053 14.8563 112.564C13.8332 112.116 13.7443 111.302 13.8332 110.406C13.8777 109.633 14.4115 109.225 15.1231 108.981C15.9682 108.655 16.8578 108.615 17.7474 108.615C18.1033 108.615 18.5036 108.696 18.4591 108.207C18.4146 107.312 18.3702 106.375 18.3257 105.479C18.2812 105.154 18.1478 104.869 17.703 104.787C17.3471 104.747 17.0802 104.869 16.9468 105.154C16.8134 105.479 17.0358 105.642 17.3026 105.887C17.7919 106.335 17.6585 106.945 17.2137 107.434C16.7244 108.004 16.0572 108.045 15.3455 107.963C14.7673 107.882 14.4115 107.556 14.278 107.067C14.1001 106.375 14.2335 105.683 14.8563 105.194C15.39 104.787 16.0572 104.584 16.7689 104.543C17.6585 104.543 18.5481 104.502 19.4377 104.543C20.9055 104.624 21.6616 105.276 21.884 106.62C22.1064 107.963 21.9285 109.307 21.973 110.65C21.973 111.058 21.7506 111.709 22.3733 111.75C22.996 111.791 22.9516 111.098 23.0405 110.65C23.1295 110.447 23.085 110.284 23.5298 110.04Z" fill="#28574E"/>
<path d="M107.508 112.564C105.951 113.053 105.728 112.035 105.328 111.098C104.616 109.266 103.86 107.474 103.104 105.642C103.015 105.439 103.06 105.113 102.704 105.032C102.481 104.95 102.037 105.113 102.17 104.706C102.259 104.421 102.659 104.543 102.882 104.543C104.261 104.543 105.639 104.543 106.974 104.543C107.152 104.543 107.419 104.502 107.419 104.787C107.419 104.991 107.241 105.032 107.063 105.032C106.351 105.032 106.707 105.398 106.796 105.642C107.285 107.067 107.819 108.492 108.442 110.202C109.153 108.37 109.776 106.742 110.443 105.113C110.221 105.072 110.132 105.032 109.998 105.032C109.732 104.991 109.331 105.113 109.376 104.746C109.376 104.38 109.82 104.543 110.043 104.543C110.577 104.502 111.155 104.543 111.689 104.543C111.867 104.543 112 104.584 112 104.787C112 104.95 111.867 105.032 111.733 104.991C111.066 104.869 110.977 105.357 110.799 105.764C109.687 108.696 108.62 111.628 107.463 114.518C106.662 116.514 104.972 117.287 103.149 116.554C102.214 116.188 101.859 115.292 102.214 114.437C102.481 113.786 103.46 113.46 104.305 113.704C104.794 113.867 105.106 114.193 105.15 114.681C105.195 115.048 105.239 115.455 104.661 115.536C104.349 115.577 104.394 115.781 104.394 115.944C104.438 116.147 104.616 116.229 104.839 116.229C105.417 116.229 105.773 115.903 106.084 115.536C106.751 114.722 107.152 113.704 107.508 112.564Z" fill="#28574E"/>
<path d="M49.9064 112.523C48.3941 112.971 48.0827 112.198 47.7269 111.261C47.0152 109.388 46.2146 107.515 45.4584 105.642C45.325 105.357 45.325 104.991 44.8357 105.032C44.6133 105.032 44.5243 104.909 44.5688 104.747C44.6133 104.543 44.8357 104.584 44.9691 104.584C46.4814 104.584 47.9938 104.584 49.5061 104.584C49.684 104.584 49.8619 104.584 49.8619 104.787C49.8619 104.991 49.684 105.032 49.5061 105.032C49.0613 104.991 48.9723 105.194 49.1057 105.52C49.6395 107.027 50.2177 108.533 50.796 110.203C51.4632 108.492 51.9969 106.986 52.6196 105.52C52.7976 105.032 52.5752 104.991 52.1748 105.032C51.9524 105.032 51.73 105.032 51.73 104.787C51.73 104.543 51.9969 104.543 52.1748 104.543C52.5307 104.543 52.931 104.502 53.2868 104.543C53.6427 104.584 54.2209 104.339 54.3099 104.706C54.4433 105.194 53.8206 104.909 53.5537 105.032C53.2868 105.154 53.2868 105.439 53.1979 105.683C52.0414 108.696 50.9294 111.709 49.7285 114.681C48.9278 116.636 47.1931 117.328 45.4139 116.554C44.5688 116.188 44.2575 115.455 44.5243 114.6C44.7467 113.867 45.4584 113.582 46.3925 113.704C46.8818 113.786 47.3266 113.989 47.4155 114.478C47.46 114.885 47.7269 115.455 46.9262 115.577C46.7038 115.618 46.7038 115.781 46.7483 115.944C46.7928 116.229 47.0597 116.269 47.2821 116.269C47.8158 116.229 48.1717 115.944 48.4385 115.577C49.1057 114.722 49.4616 113.704 49.9064 112.523Z" fill="#28574E"/>
<path d="M55.4217 90.1701C29.6235 90.1701 8.71802 70.6669 8.71802 46.6034C8.71802 22.4993 29.6235 2.99609 55.4662 2.99609C81.2644 3.03681 102.125 22.54 102.125 46.5627C102.17 70.6262 81.22 90.1701 55.4217 90.1701Z" fill="#28574E" stroke="#F5DADB" stroke-width="0.889594" stroke-miterlimit="10"/>
<path d="M65.0739 109.429C65.0739 109.999 65.1184 110.569 64.9404 111.098C64.6736 111.913 64.0953 112.238 63.2057 112.238C62.8054 112.238 62.583 112.198 62.583 111.75C62.6275 110.243 62.583 108.737 62.583 107.23C62.583 106.864 62.672 106.742 63.1168 106.742C64.2288 106.742 64.9404 107.271 65.0739 108.289C65.1183 108.655 65.0739 109.062 65.0739 109.429Z" fill="#F5DADB"/>
<path d="M62.5829 103.769C62.5829 103.24 62.5384 102.711 62.5829 102.181C62.6274 101.896 62.316 101.408 62.8498 101.326C63.3835 101.204 63.9618 101.286 64.2731 101.774C64.8069 102.548 64.7624 105.072 64.2286 105.764C63.8728 106.212 63.3835 106.294 62.8498 106.212C62.316 106.131 62.6274 105.642 62.5829 105.357C62.5829 104.869 62.5829 104.339 62.5829 103.769Z" fill="#F5DADB"/>
<path d="M27.9331 108.94C27.9776 108.207 27.9776 107.515 28.0665 106.782C28.111 106.334 28.2445 105.927 28.6003 105.602C28.8227 105.398 29.0451 105.194 29.4009 105.276C29.7568 105.357 29.8457 105.642 29.8902 105.927C30.1571 107.719 30.1571 109.551 29.8902 111.343C29.8457 111.75 29.5789 112.157 29.0896 112.198C28.5558 112.198 28.2445 111.831 28.111 111.383C27.8886 110.569 27.9776 109.755 27.9331 108.94Z" fill="#F5DADB"/>
<path d="M40.7881 108.655C40.7436 109.551 40.9215 110.488 40.6101 111.343C40.4767 111.75 40.3433 112.157 39.8095 112.198C39.3202 112.198 39.0978 111.79 38.8754 111.424C38.6975 111.139 38.742 110.813 38.6975 110.488C38.6975 109.429 38.6975 108.37 38.6975 107.271C38.6975 106.986 38.6975 106.701 38.7865 106.457C39.0533 105.927 39.2313 105.154 40.0319 105.276C40.7881 105.357 40.6991 106.131 40.7436 106.66C40.8325 107.352 40.7881 108.004 40.7881 108.655Z" fill="#F5DADB"/>
<path d="M18.5037 110.04C18.4592 110.61 18.4592 111.139 18.1923 111.628C18.1034 111.791 17.9699 111.953 17.7475 111.953C17.4807 111.953 17.3917 111.709 17.3917 111.546C17.3472 111.058 17.3027 110.528 17.3917 110.04C17.4807 109.592 17.6141 108.981 18.2813 109.063C18.7261 109.185 18.3702 109.755 18.5037 110.04Z" fill="#F5DADB"/>
<path d="M69.6997 72.662C69.3439 72.662 68.9436 72.662 68.5877 72.662C58.7132 72.662 48.8387 72.662 38.9643 72.662C38.2081 72.662 37.6299 72.4177 37.0516 71.9698C33.2264 68.9568 30.3797 65.333 28.645 61.0171C27.4885 58.1669 26.8658 55.1539 26.8213 52.1002C26.8213 51.2044 27.3106 50.8787 28.2446 50.8787C29.9349 50.8787 29.9349 50.838 29.9349 49.2908C29.9349 46.1556 29.8904 43.0204 29.9349 39.8852C30.1128 30.3983 34.9166 23.5579 44.2573 19.4863C46.8816 18.3462 49.6839 17.7355 52.575 17.7355C55.7331 17.7355 58.8912 17.4912 62.0047 18.0205C66.853 18.8348 71.0341 20.8299 74.548 24.0058C78.8626 27.9146 81.1755 32.6784 81.5313 38.2159C81.7982 42.1247 81.6203 46.0742 81.6203 49.9829C81.6203 50.6751 81.7982 50.9601 82.5989 50.838C82.9102 50.7973 83.2216 50.838 83.5329 50.838C84.4225 50.838 84.7339 51.3266 84.7339 52.0595C84.467 59.9992 81.0866 66.5953 74.5925 71.8884C74.0143 72.377 73.436 72.7842 72.5909 72.662C72.1016 72.5806 71.9682 72.9063 71.8348 73.232C70.9452 75.7565 71.2565 75.5122 68.2764 75.5122C59.5584 75.5122 50.8848 75.5122 42.1668 75.5122C41.8554 75.5122 41.5441 75.5529 41.2327 75.4714C40.6545 75.39 40.2542 75.0643 40.2542 74.535C40.2542 74.0057 40.5655 73.6392 41.1882 73.5578C41.5441 73.5171 41.9444 73.4763 42.3002 73.4763C51.0627 73.4763 59.8697 73.4763 68.6322 73.4763C69.2549 73.5171 69.7442 73.4763 69.6997 72.662Z" fill="#28574E" stroke="#F5DADB" stroke-width="0.889594" stroke-miterlimit="10"/>
<path d="M59.5138 25.553C59.5138 24.6979 59.5138 24.0465 59.5138 23.395C59.5138 22.3771 59.0245 21.9292 58.0015 22.2142C54.8879 23.0693 52.575 24.8201 51.7743 27.8331C51.5964 28.5253 51.3295 28.7289 50.5734 28.6881C47.9046 28.566 45.814 29.7061 44.2128 31.579C43.5456 32.3933 42.9229 33.2891 42.3001 34.1441C40.2096 36.9943 40.3875 39.1523 43.0118 41.5953C43.679 42.206 43.9014 42.776 43.6345 43.5904C43.0118 45.7076 42.9229 47.8656 42.9673 50.0236C42.9673 50.6343 42.8339 50.8786 42.0777 50.8786C39.0086 50.8379 35.8951 50.8786 32.826 50.8786C32.2032 50.8786 31.9364 50.7972 31.9364 50.1457C32.0253 46.1555 31.8029 42.1653 32.0698 38.2158C32.4701 32.3119 35.3168 27.5481 40.2986 23.8836C44.0348 21.1149 48.3494 19.8119 53.1087 19.6491C57.4232 19.4862 61.7823 19.4455 65.8299 21.0742C73.3915 24.0872 78.0618 29.2582 79.1738 36.8314C79.841 41.3102 79.3073 45.8705 79.4407 50.3493C79.4407 50.7565 79.2628 50.8786 78.8625 50.8786C76.2382 50.8786 73.6583 50.8379 71.034 50.8786C70.4558 50.8786 70.2779 50.5936 70.011 50.2679C68.5432 48.5578 67.2977 46.7255 65.563 45.219C63.1611 43.1832 60.2255 42.0839 57.0674 41.4731C56.6671 41.3917 56.2668 41.3102 55.7775 41.1881C56.934 40.048 57.8236 38.7858 57.9125 37.2793C57.957 36.3428 58.4018 35.9764 59.2469 35.6914C62.1826 34.6735 63.6504 32.6376 63.9618 29.8689C64.0507 29.0546 64.2286 28.2403 64.4066 27.4666C64.7179 26.2452 64.2286 25.268 63.339 24.4129C62.8942 23.965 62.316 24.0057 61.7378 24.3315C61.1151 24.6572 60.4034 25.0644 59.5138 25.553Z" fill="#28574E" stroke="#F5DADB" stroke-width="0.889594" stroke-miterlimit="10"/>
<path d="M31.1801 61.2614C32.3811 61.2614 33.4041 61.2614 34.4716 61.2614C35.4947 61.3021 35.0054 60.5692 35.0499 60.2028C35.0944 59.8363 35.3168 59.2663 34.4716 59.307C33.3152 59.3477 32.1587 59.307 30.9577 59.3477C30.424 59.3477 30.2461 59.1849 30.1126 58.7777C29.5789 57.0676 29.2675 55.3168 29.0451 53.5253C28.9562 52.8331 29.401 52.8738 29.8902 52.8738C38.4748 52.8331 47.0149 52.7517 55.5995 52.7517C64.2731 52.7109 72.9466 52.7517 81.6201 52.7109C82.3763 52.7109 82.5542 52.8331 82.4208 53.566C82.1539 55.3168 81.9315 57.0269 81.3977 58.737C81.2198 59.2256 80.9974 59.3884 80.4637 59.3477C79.663 59.307 78.8624 59.3884 78.1062 59.307C77.1722 59.2256 77.439 59.8363 77.439 60.2435C77.4835 60.6506 77.0832 61.3428 78.1062 61.2614C78.2842 61.2614 78.4621 61.2614 78.64 61.2614C80.5526 61.2614 80.5971 61.2614 79.7075 62.8086C78.0618 65.6181 76.1047 68.1832 73.3914 70.2597C73.0356 70.5448 72.6797 70.6669 72.1904 70.6669C61.3374 70.6669 50.4843 70.6669 39.5868 70.6669C38.9196 70.6669 38.4303 70.4633 37.9855 70.0562C35.0944 67.6946 32.9148 64.9259 31.3581 61.6686C31.2691 61.5871 31.2246 61.465 31.1801 61.2614Z" fill="#28574E" stroke="#F5DADB" stroke-width="0.889594" stroke-miterlimit="10"/>
<path d="M43.6346 39.193C44.2573 39.3151 44.88 39.3966 45.4582 39.1523C45.9475 38.9487 46.2144 38.6229 46.1254 38.0936C46.0365 37.6458 45.6806 37.4015 45.2358 37.32C42.9229 36.9129 42.8784 36.9129 44.2128 35.0806C44.9245 34.1034 45.5472 33.0448 46.4368 32.1897C47.9936 30.6425 49.9952 30.2354 52.0412 30.9275C54.1318 31.6604 55.5106 33.0855 55.8665 35.2435C56.1778 37.2386 55.5551 38.8672 53.9094 40.2109C53.1532 40.8216 53.1977 41.3509 53.8649 42.0431C54.5766 42.776 44.791 43.3868 45.8585 43.6311C48.6163 44.1604 61.9157 44.7304 64.0507 46.5219C65.5186 47.7842 66.7195 49.2499 68.0094 50.8786C67.5646 50.8786 67.2533 50.8786 66.9864 50.8786C60.0476 50.8786 53.0643 50.8786 46.1254 50.9193C45.4137 50.9193 45.1469 50.7972 45.1469 50.0643C45.1024 47.9063 45.3693 45.7483 45.8585 43.6311C46.1699 42.3281 45.7696 41.3102 44.7465 40.4145C44.3017 40.048 43.8125 39.763 43.6346 39.193Z" fill="#28574E" stroke="#F5DADB" stroke-width="0.889594" stroke-miterlimit="10"/>
<path d="M57.8235 34.1442C57.6011 33.6556 57.5121 33.1262 57.2008 32.7598C56.4891 31.9455 56.8004 31.294 57.2008 30.4797C58.1793 28.566 59.9585 27.5481 61.8711 26.5709C62.3159 26.3673 62.4938 26.5709 62.4049 26.8966C62.049 28.7289 62.0046 30.6425 60.9371 32.3119C60.2254 33.3298 58.9355 33.6556 57.8235 34.1442Z" fill="#28574E" stroke="#F5DADB" stroke-width="0.889594" stroke-miterlimit="10"/>
<path d="M57.4677 24.3315C57.4677 24.8609 57.4233 25.1866 57.4677 25.553C57.6012 26.4895 57.2898 27.2224 56.5337 27.8739C55.9999 28.3218 55.733 28.9325 55.3772 29.5025C55.2438 29.7468 55.1993 30.3576 54.71 30.0726C54.2207 29.7875 53.3756 29.7876 53.6425 28.7696C54.0428 27.1817 54.8879 25.9602 56.3558 25.0644C56.6671 24.8609 56.9785 24.6573 57.4677 24.3315Z" fill="#28574E" stroke="#F5DADB" stroke-width="0.889594" stroke-miterlimit="10"/>
<path d="M59.8696 63.1751C59.8696 64.6816 59.8696 66.0252 59.8696 67.4096C59.8696 67.9389 59.8696 68.3868 59.2914 68.7125C58.6686 69.0382 58.2683 68.7125 57.779 68.4682C57.7346 68.4682 57.7346 68.4275 57.6901 68.4275C56.6671 67.5317 55.644 67.5317 54.621 68.4275C54.2207 68.7532 53.7314 69.079 53.1532 68.7532C52.5304 68.4275 52.5304 67.8982 52.5304 67.3689C52.5304 66.0252 52.5304 64.6816 52.5304 63.1751C51.2405 63.8672 49.9951 64.3966 48.6607 64.8037C47.4598 65.1702 47.0594 64.9666 46.7036 63.908C46.4367 63.0529 46.4812 61.9536 45.8585 61.465C45.1913 60.9357 43.9459 61.3428 42.9673 61.3021C41.8998 61.2614 40.8323 61.2614 39.7648 61.3021C38.6528 61.3428 39.231 60.5692 39.142 60.162C39.0531 59.7549 39.0086 59.307 39.8092 59.3477C41.5439 59.3884 43.3231 59.3477 45.0578 59.3884C45.6361 59.3884 45.903 59.307 45.9474 58.6962C45.9919 57.6376 46.3478 56.6197 46.6591 55.6018C46.8815 54.8689 47.4153 54.5839 48.2159 54.706C50.173 55.0318 52.0412 55.6018 53.6869 56.6604C54.0428 56.864 54.2651 56.9862 54.6655 56.7826C55.644 56.3754 56.6671 56.3754 57.6456 56.7419C58.0459 56.9047 58.3128 56.9047 58.6686 56.6604C60.2699 55.5611 62.0936 55.0318 64.0507 54.706C64.8958 54.5432 65.474 54.7875 65.7409 55.6425C66.0078 56.7011 66.3636 57.7598 66.4526 58.8591C66.4971 59.3477 66.7195 59.3884 67.1643 59.3884C68.899 59.3884 70.6782 59.4291 72.4129 59.3477C73.3025 59.307 73.3914 59.6734 73.3914 60.3249C73.3914 60.9356 73.4359 61.3835 72.4574 61.3428C70.6782 61.2614 68.899 61.3428 67.1198 61.3021C66.586 61.3021 66.3192 61.3835 66.2302 61.9128C66.1412 62.605 65.8744 63.2565 65.6964 63.908C65.3851 64.9259 64.9403 65.1702 63.8283 64.8444C62.4939 64.3966 61.204 63.908 59.8696 63.1751Z" fill="#28574E" stroke="#F5DADB" stroke-width="0.889594" stroke-miterlimit="10"/>
<path d="M38.2081 60.4063C38.1636 60.9357 37.8078 61.2207 37.1851 61.2614C36.5179 61.2614 36.1176 60.9356 36.162 60.3249C36.162 59.7549 36.6068 59.3884 37.1851 59.3884C37.7633 59.3884 38.1636 59.7142 38.2081 60.4063Z" fill="#28574E" stroke="#F5DADB" stroke-width="0.889594" stroke-miterlimit="10"/>
<path d="M75.4821 61.2614C74.8149 61.2614 74.3701 60.9356 74.3701 60.3656C74.3701 59.7956 74.7704 59.3884 75.3487 59.3884C75.9269 59.3477 76.3717 59.6734 76.4162 60.2842C76.4607 60.8949 76.0603 61.1392 75.4821 61.2614Z" fill="#28574E" stroke="#F5DADB" stroke-width="0.889594" stroke-miterlimit="10"/>
<path d="M49.3281 35.4063C48.5274 35.4063 48.2161 35.0398 48.2161 34.4698C48.2161 33.8998 48.5719 33.5333 49.1946 33.5333C49.7729 33.5333 50.2621 33.8183 50.2621 34.4291C50.2621 35.0806 49.8618 35.4063 49.3281 35.4063Z" fill="#28574E" stroke="#F5DADB" stroke-width="0.889594" stroke-miterlimit="10"/>
<path d="M47.9935 59.5106C47.9491 58.737 48.3049 57.9226 48.4383 57.1083C48.4828 56.7826 48.6607 56.7418 49.0166 56.864C49.6393 57.0676 50.351 57.1897 50.9737 57.434C52.8418 58.1669 53.0642 58.6555 52.575 60.447C52.5305 60.6506 52.3526 60.7321 52.2191 60.8542C51.285 61.6278 50.1731 62.0757 49.0166 62.4422C48.6607 62.5643 48.5273 62.4829 48.4828 62.1571C48.2604 61.3021 47.9491 60.4878 47.9935 59.5106Z" fill="#28574E" stroke="#F5DADB" stroke-width="0.889594" stroke-miterlimit="10"/>
<path d="M64.4955 59.6734C64.3176 60.5692 64.1841 61.3428 64.0062 62.1571C63.9173 62.5236 63.7393 62.605 63.339 62.4422C62.6718 62.1979 62.0491 61.8721 61.3819 61.6685C59.7362 61.0985 59.9586 59.7549 59.6917 58.5741C59.6472 58.3298 59.9141 58.2076 60.092 58.0855C61.0706 57.4747 62.1826 57.0676 63.3835 56.7826C63.7393 56.7011 63.8728 56.7418 63.9617 57.0676C64.1397 57.9633 64.3176 58.8591 64.4955 59.6734Z" fill="#28574E" stroke="#F5DADB" stroke-width="0.889594" stroke-miterlimit="10"/>
<path d="M57.7346 66.1066C56.2223 65.4551 56.2223 65.4551 54.6655 65.9845C54.6655 65.0073 54.6655 63.9893 54.6655 62.9714C55.5106 63.1343 56.3558 63.2565 57.2009 63.0529C57.7791 62.89 57.7346 63.175 57.7346 63.5008C57.7346 64.3151 57.7346 65.1701 57.7346 66.1066Z" fill="#28574E" stroke="#F5DADB" stroke-width="0.889594" stroke-miterlimit="10"/>
<path d="M57.7791 59.7956C57.7791 60.6099 57.1119 61.2206 56.2223 61.2206C55.3327 61.2206 54.6211 60.6506 54.5766 59.877C54.5321 59.0627 55.2882 58.3705 56.1778 58.3705C57.0674 58.3705 57.7791 58.9812 57.7791 59.7956Z" fill="#28574E" stroke="#F5DADB" stroke-width="0.889594" stroke-miterlimit="10"/>
</svg>
