<svg width="16" height="16" viewBox="0 0 16 16" fill="none" xmlns="http://www.w3.org/2000/svg">
<path fill-rule="evenodd" clip-rule="evenodd" d="M14.9143 15.1386C15.4613 15.1386 15.8485 14.7533 15.8485 14.2602C15.8485 14.0291 15.7643 13.8057 15.5792 13.6439L11.6149 10.0073C12.4482 9.00575 12.9448 7.76532 12.9448 6.41703C12.9448 3.15802 10.0326 0.492249 6.47238 0.492249C2.92057 0.492249 0 3.15031 0 6.41703C0 9.67604 2.91215 12.3418 6.47238 12.3418C7.87796 12.3418 9.17412 11.9258 10.2346 11.2324L14.2241 14.8843C14.4093 15.0538 14.6533 15.1386 14.9143 15.1386ZM6.47238 11.0629C3.6949 11.0629 1.39716 8.95952 1.39716 6.41703C1.39716 3.87454 3.6949 1.7712 6.47238 1.7712C9.24987 1.7712 11.5476 3.87454 11.5476 6.41703C11.5476 8.95952 9.24987 11.0629 6.47238 11.0629Z" fill="#28574E"/>
</svg>
